<svg height="462.956" viewBox="0 0 1405.5 462.956" width="1405.5" xmlns="http://www.w3.org/2000/svg"><path d="m33 5h1296v360h-1296z" fill="#f6f8e9"/><g fill="none"><path d="m176.5 6.833v360" stroke="#000" stroke-width="3"/><path d="m33.5 5.5v360" stroke="#000" stroke-width="3"/><path d="m104.5 5.5v360" stroke="#8ea5c5" stroke-width="2"/><path d="m248.5 6.833v360" stroke="#8ea5c5" stroke-width="2"/><path d="m393.5 6.833v360" stroke="#8ea5c5" stroke-width="2"/><path d="m536.5 6.833v360" stroke="#8ea5c5" stroke-width="2"/><path d="m681.5 5.5v360" stroke="#8ea5c5" stroke-width="2"/><path d="m824.5 5.5v360" stroke="#8ea5c5" stroke-width="2"/><path d="m969.5 5.5v360" stroke="#8ea5c5" stroke-width="2"/><path d="m1112.5 5.5v360" stroke="#8ea5c5" stroke-width="2"/><path d="m1257.5 5.5v360" stroke="#8ea5c5" stroke-width="2"/><path d="m319.833 5.5v360" stroke="#000" stroke-width="3"/><path d="m464.5 6.833v360" stroke="#000" stroke-width="3"/><path d="m607.167 6.833v360" stroke="#000" stroke-width="3"/><path d="m749.833 5.5v360" stroke="#000" stroke-width="3"/><path d="m896.5 5.5v360" stroke="#000" stroke-width="3"/><path d="m1040.5 5.5v360" stroke="#000" stroke-width="3"/><path d="m1183.5 5.5v360" stroke="#000" stroke-width="3"/><path d="m1329.5 6.833v360" stroke="#000" stroke-width="3"/><path d="m33.5 365.5h1296" stroke="#656565" stroke-width="2"/><path d="m33.5 6.833h1296" stroke="#656565" stroke-width="2"/></g><path d="m42 26.159h311v34h-311z" fill="#b9dfdf"/><path d="m42 26.159h311v34h-311z" fill="none" stroke="#000" stroke-width="2"/><path d="m406 26.159h300v34h-300z" fill="#b9dfdf"/><path d="m406 26.159h300v34h-300z" fill="none" stroke="#000" stroke-width="2"/><path d="m768 26.159h300v34h-300z" fill="#b9dfdf"/><path d="m768 26.159h300v34h-300z" fill="none" stroke="#000" stroke-width="2"/><path d="m842 97.159h300v34h-300z" fill="#b9dfdf"/><path d="m842 97.159h300v34h-300z" fill="none" stroke="#000" stroke-width="2"/><path d="m911 168.5h300v34h-300z" fill="#b9dfdf"/><path d="m911 168.5h300v34h-300z" fill="none" stroke="#000" stroke-width="2"/><path d="m1089 238.167h300v34h-300z" fill="#b9dfdf"/><path d="m1089 238.167h300v34h-300z" fill="none" stroke="#000" stroke-width="2"/><path d="m485 97.159h300v34h-300z" fill="#b9dfdf"/><path d="m485 97.159h300v34h-300z" fill="none" stroke="#000" stroke-width="2"/><path d="m550 169.833h300v34h-300z" fill="#b9dfdf"/><path d="m550 169.833h300v34h-300z" fill="none" stroke="#000" stroke-width="2"/><path d="m623 238.167h300v34h-300z" fill="#b9dfdf"/><path d="m623 238.167h300v34h-300z" fill="none" stroke="#000" stroke-width="2"/><path d="m700 309.167h300v34h-300z" fill="#b9dfdf"/><path d="m700 309.167h300v34h-300z" fill="none" stroke="#000" stroke-width="2"/><path d="m117 97.159h309v34h-309z" fill="#b9dfdf"/><path d="m117 97.159h309v34h-309z" fill="none" stroke="#000" stroke-width="2"/><path d="m190 167.763h313v35.474h-313z" fill="#b9dfdf"/><path d="m190 167.763h313v35.474h-313z" fill="none" stroke="#000" stroke-width="2"/><path d="m262 238.167h314v34h-314z" fill="#b9dfdf"/><path d="m262 238.167h314v34h-314z" fill="none" stroke="#000" stroke-width="2"/><path d="m333 309.167h325v34h-325z" fill="#b9dfdf"/><path d="m333 309.167h325v34h-325z" fill="none" stroke="#000" stroke-width="2"/><text transform="translate(197 42.659)"><tspan fill="#ea0029" font-family="Avenir-Medium" font-size="30" x="-8.34" y="9">1</tspan></text><text transform="translate(271 113.659)"><tspan fill="#ea0029" font-family="Avenir-Medium" font-size="30" x="-8.34" y="9">2</tspan></text><text transform="translate(346 185)"><tspan fill="#ea0029" font-family="Avenir-Medium" font-size="30" x="-8.34" y="9">3</tspan></text><text transform="translate(418.5 254.667)"><tspan fill="#ea0029" font-family="Avenir-Medium" font-size="30" x="-8.34" y="9">4</tspan></text><text transform="translate(495 325.667)"><tspan fill="#ea0029" font-family="Avenir-Medium" font-size="30" x="-8.34" y="9">5</tspan></text><text transform="translate(699.5 419.333)"><tspan fill="#656565" font-family="Avenir-Medium" font-size="30" x="-123.93" y="9">2.4 GHz ISM Band</tspan></text><text transform="translate(85.417 395.333)"><tspan fill="#656565" font-family="Avenir-Medium" font-size="30" x="-71.43" y="9">2.400 GHz</tspan></text><text transform="translate(1320.083 395.333)"><tspan fill="#656565" font-family="Avenir-Medium" font-size="30" x="-71.43" y="9">2.490 GHz</tspan></text><text transform="translate(555.5 42.659)"><tspan fill="#ea0029" font-family="Avenir-Medium" font-size="30" x="-8.34" y="9">6</tspan></text><text transform="translate(634.5 113.659)"><tspan fill="#ea0029" font-family="Avenir-Medium" font-size="30" x="-8.34" y="9">7</tspan></text><text transform="translate(699.5 186.333)"><tspan fill="#ea0029" font-family="Avenir-Medium" font-size="30" x="-8.34" y="9">8</tspan></text><text transform="translate(772.5 254.667)"><tspan fill="#ea0029" font-family="Avenir-Medium" font-size="30" x="-8.34" y="9">9</tspan></text><text transform="translate(850.939 325.667)"><tspan fill="#ea0029" font-family="Avenir-Medium" font-size="30" x="-16.68" y="9">10</tspan></text><text transform="translate(917.5 42.659)"><tspan fill="#ea0029" font-family="Avenir-Medium" font-size="30" x="-16.68" y="9">11</tspan></text><text transform="translate(991.5 113.659)"><tspan fill="#ea0029" font-family="Avenir-Medium" font-size="30" x="-16.68" y="9">12</tspan></text><text transform="translate(1060.5 186.333)"><tspan fill="#ea0029" font-family="Avenir-Medium" font-size="30" x="-16.68" y="9">13</tspan></text><text transform="translate(1238.5 254.667)"><tspan fill="#ea0029" font-family="Avenir-Medium" font-size="30" x="-16.68" y="9">14</tspan></text><path d="m48.5 440.456h1266" fill="none" stroke="#a3a3a3" stroke-width="6"/><path d="m48.5 440.456 4-6-16 6 16 6z" fill="#a3a3a3" stroke="#a3a3a3" stroke-width="6"/><path d="m1314.5 440.456-4 6 16-6-16-6z" fill="#a3a3a3" stroke="#a3a3a3" stroke-width="6"/></svg>